<svg xmlns="http://www.w3.org/2000/svg" width="22.186" height="19" viewBox="0 0 22.186 19" fill="none">
  <path d="M 4.093 19 C 3.81 19 3.551 18.913 3.318 18.738 C 3.085 18.563 2.926 18.333 2.843 18.05 L 0.043 7.95 C -0.04 7.717 -0.003 7.5 0.155 7.3 C 0.314 7.1 0.526 7 0.793 7 L 5.843 7 L 10.243 0.45 C 10.326 0.317 10.443 0.208 10.593 0.125 C 10.743 0.042 10.901 0 11.068 0 C 11.235 0 11.393 0.042 11.543 0.125 C 11.693 0.208 11.81 0.317 11.893 0.45 L 16.293 7 L 21.393 7 C 21.66 7 21.872 7.1 22.031 7.3 C 22.189 7.5 22.226 7.717 22.143 7.95 L 19.343 18.05 C 19.26 18.333 19.101 18.563 18.868 18.738 C 18.635 18.913 18.376 19 18.093 19 L 4.093 19 Z M 4.593 17 L 17.593 17 L 19.793 9 L 2.393 9 L 4.593 17 Z M 11.093 15 C 11.643 15 12.114 14.804 12.506 14.413 C 12.897 14.021 13.093 13.55 13.093 13 C 13.093 12.45 12.897 11.979 12.506 11.587 C 12.114 11.196 11.643 11 11.093 11 C 10.543 11 10.072 11.196 9.681 11.587 C 9.289 11.979 9.093 12.45 9.093 13 C 9.093 13.55 9.289 14.021 9.681 14.413 C 10.072 14.804 10.543 15 11.093 15 Z M 8.268 7 L 13.893 7 L 11.068 2.8 L 8.268 7 Z" fill="currentColor" fill-rule="nonzero"></path>
</svg>