<svg xmlns="http://www.w3.org/2000/svg" width="18" height="18" viewBox="0 0 18 18" fill="none">
  <path d="M 2 18 C 1.45 18 0.979 17.804 0.588 17.413 C 0.196 17.021 0 16.55 0 16 L 0 2 C 0 1.45 0.196 0.979 0.588 0.588 C 0.979 0.196 1.45 0 2 0 L 8 0 C 8.283 0 8.521 0.096 8.713 0.287 C 8.904 0.479 9 0.717 9 1 C 9 1.283 8.904 1.521 8.713 1.712 C 8.521 1.904 8.283 2 8 2 L 2 2 L 2 16 L 16 16 L 16 10 C 16 9.717 16.096 9.479 16.288 9.288 C 16.479 9.096 16.717 9 17 9 C 17.283 9 17.521 9.096 17.712 9.288 C 17.904 9.479 18 9.717 18 10 L 18 16 C 18 16.55 17.804 17.021 17.413 17.413 C 17.021 17.804 16.55 18 16 18 L 2 18 Z M 16 3.4 L 7.4 12 C 7.217 12.183 6.983 12.275 6.7 12.275 C 6.417 12.275 6.183 12.183 6 12 C 5.817 11.817 5.725 11.583 5.725 11.3 C 5.725 11.017 5.817 10.783 6 10.6 L 14.6 2 L 12 2 C 11.717 2 11.479 1.904 11.288 1.712 C 11.096 1.521 11 1.283 11 1 C 11 0.717 11.096 0.479 11.288 0.287 C 11.479 0.096 11.717 0 12 0 L 17 0 C 17.283 0 17.521 0.096 17.712 0.287 C 17.904 0.479 18 0.717 18 1 L 18 6 C 18 6.283 17.904 6.521 17.712 6.713 C 17.521 6.904 17.283 7 17 7 C 16.717 7 16.479 6.904 16.288 6.713 C 16.096 6.521 16 6.283 16 6 L 16 3.4 Z" fill="currentColor" fill-rule="nonzero"></path>
</svg>