<svg xmlns="http://www.w3.org/2000/svg" width="20" height="20.024" viewBox="0 0 20 20.024" fill="none">
  <path d="M 1.951 20.024 C 1.415 20.024 0.955 19.833 0.573 19.451 C 0.191 19.069 0 18.61 0 18.073 L 0 4.415 C 0 3.878 0.191 3.419 0.573 3.036 C 0.955 2.654 1.415 2.463 1.951 2.463 L 10.659 2.463 L 8.707 4.415 L 1.951 4.415 L 1.951 18.073 L 15.61 18.073 L 15.61 11.293 L 17.561 9.341 L 17.561 18.073 C 17.561 18.61 17.37 19.069 16.988 19.451 C 16.606 19.833 16.146 20.024 15.61 20.024 L 1.951 20.024 Z M 12.854 3.024 L 14.244 4.39 L 7.805 10.829 L 7.805 12.22 L 9.171 12.22 L 15.634 5.756 L 17.024 7.122 L 10.561 13.585 C 10.382 13.764 10.175 13.907 9.94 14.013 C 9.703 14.118 9.455 14.171 9.195 14.171 L 6.829 14.171 C 6.553 14.171 6.321 14.077 6.135 13.891 C 5.947 13.703 5.854 13.472 5.854 13.195 L 5.854 10.829 C 5.854 10.569 5.902 10.321 6 10.085 C 6.098 9.849 6.236 9.642 6.415 9.463 L 12.854 3.024 Z M 17.024 7.122 L 12.854 3.024 L 15.293 0.585 C 15.683 0.195 16.151 0 16.696 0 C 17.24 0 17.699 0.195 18.073 0.585 L 19.439 1.976 C 19.813 2.35 20 2.805 20 3.341 C 20 3.878 19.813 4.333 19.439 4.707 L 17.024 7.122 Z" fill="currentColor" fill-rule="nonzero"></path>
</svg>