<svg xmlns="http://www.w3.org/2000/svg" width="13.150" height="13.150" viewBox="0 0 13.150 13.150" fill="none">
  <path d="M 6.575 7.975 L 1.675 12.875 C 1.492 13.058 1.258 13.15 0.975 13.15 C 0.692 13.15 0.458 13.058 0.275 12.875 C 0.092 12.692 0 12.458 0 12.175 C 0 11.892 0.092 11.658 0.275 11.475 L 5.175 6.575 L 0.275 1.675 C 0.092 1.492 0 1.258 0 0.975 C 0 0.692 0.092 0.458 0.275 0.275 C 0.458 0.092 0.692 0 0.975 0 C 1.258 0 1.492 0.092 1.675 0.275 L 6.575 5.175 L 11.475 0.275 C 11.658 0.092 11.892 0 12.175 0 C 12.458 0 12.692 0.092 12.875 0.275 C 13.058 0.458 13.15 0.692 13.15 0.975 C 13.15 1.258 13.058 1.492 12.875 1.675 L 7.975 6.575 L 12.875 11.475 C 13.058 11.658 13.15 11.892 13.15 12.175 C 13.15 12.458 13.058 12.692 12.875 12.875 C 12.692 13.058 12.458 13.15 12.175 13.15 C 11.892 13.15 11.658 13.058 11.475 12.875 L 6.575 7.975 Z" fill="currentColor" fill-rule="nonzero"></path>
</svg>